# xmcd
#
# Track frame offsets:
#	150
#	16070
#	32616
#	55779
#
# Disc length: 1056 seconds
# Revision: 0
# Processed by: cddbd v1.5.2PL0 Copyright (c) Steve Scherf et al.
# Submitted via: dBpowerAMP V12.0
#
DISCID=22041e04
DTITLE=Yonder Mountain String Band - EP 13
DYEAR=2013
DGENRE=Country
TTITLE0=Straight Line
TTITLE1=Don't Worry Happy Birthday
TTITLE2=Rag Doll
TTITLE3=All the Time
EXTD=
EXTT0=
EXTT1=
EXTT2=
EXTT3=
PLAYORDER=
